<?xml version="1.0" encoding="UTF-8" standalone="no"?>
<svg width="79px" height="39px" viewBox="0 0 79 39" version="1.1" xmlns="http://www.w3.org/2000/svg" xmlns:xlink="http://www.w3.org/1999/xlink" xmlns:sketch="http://www.bohemiancoding.com/sketch/ns">
    <!-- Generator: Sketch 3.3.3 (12081) - http://www.bohemiancoding.com/sketch -->
    <title>Logo</title>
    <desc>Created with Sketch.</desc>
    <defs></defs>
    <g id="Page-1" stroke="none" stroke-width="1" fill="none" fill-rule="evenodd" sketch:type="MSPage">
        <g id="Home" sketch:type="MSArtboardGroup" transform="translate(-271.000000, -21.000000)">
            <g id="Nav-Bar" sketch:type="MSLayerGroup">
                <g id="Logo" transform="translate(271.520619, 21.500000)" sketch:type="MSShapeGroup">
                    <path d="M0.0372164948,30.6276082 L2.42651546,30.6276082 C2.98672165,30.6276082 3.50109278,30.7184948 3.96923711,30.8990928 C4.4377732,31.080866 4.8408866,31.3319794 5.17936082,31.6532165 C5.51783505,31.9744536 5.77952577,32.3521031 5.96404124,32.7861649 C6.1485567,33.2206186 6.24101031,33.6903299 6.24101031,34.1960825 L6.24101031,34.2164536 C6.24101031,34.7225979 6.1485567,35.194268 5.96404124,35.6314639 C5.77952577,36.0686598 5.51783505,36.4486598 5.17936082,36.7698969 C4.8408866,37.0915258 4.4377732,37.3438144 3.96923711,37.5287216 C3.50109278,37.7132371 2.98672165,37.805299 2.42651546,37.805299 L0.0372164948,37.805299 L0.0372164948,30.6276082 L0.0372164948,30.6276082 Z M2.42651546,37.3230515 C2.92482474,37.3230515 3.37651546,37.2427423 3.77962887,37.0809485 C4.18313402,36.9207216 4.52474227,36.7013402 4.80523711,36.4239794 C5.08534021,36.1458351 5.30237113,35.8198969 5.45672165,35.4461649 C5.61028866,35.072433 5.68707216,34.6693196 5.68707216,34.2368247 L5.68707216,34.2164536 C5.68707216,33.7914021 5.61028866,33.3902474 5.45672165,33.0129897 C5.30237113,32.6361237 5.08534021,32.3066598 4.80523711,32.0253814 C4.52474227,31.7441031 4.18313402,31.5211959 3.77962887,31.3566598 C3.37651546,31.1921237 2.92482474,31.1098557 2.42651546,31.1098557 L0.570391753,31.1098557 L0.570391753,37.3230515 L2.42651546,37.3230515 L2.42651546,37.3230515 Z" id="Fill-1" fill="#8C9EFF"></path>
                    <path d="M9.66571134,30.6276082 L10.1988866,30.6276082 L10.1988866,37.805299 L9.66571134,37.805299 L9.66571134,30.6276082 Z" id="Fill-2" fill="#8C9EFF"></path>
                    <path d="M17.2328041,37.9283093 C16.6651546,37.9283093 16.1578351,37.8311546 15.7104536,37.6360619 C15.2626804,37.4413608 14.8846392,37.1761443 14.5767216,36.8415876 C14.2695876,36.5062474 14.0333608,36.1156701 13.8692165,35.6678969 C13.7050722,35.2193402 13.6231959,34.7425773 13.6231959,34.2368247 L13.6231959,34.2164536 C13.6231959,33.7314639 13.7074227,33.2648866 13.874701,32.8171134 C14.0423711,32.3689485 14.2813402,31.9744536 14.5927835,31.6328454 C14.9034433,31.2912371 15.277567,31.0174021 15.7151546,30.8121237 C16.1523505,30.6072371 16.6385155,30.5045979 17.171299,30.5045979 C17.4651134,30.5045979 17.7334639,30.5249691 17.9767423,30.5661031 C18.2188454,30.6072371 18.4444948,30.6687423 18.6529072,30.7510103 C18.8613196,30.8328866 19.0595464,30.932 19.2479794,31.0483505 C19.4356289,31.164701 19.6185773,31.2978969 19.7960412,31.4479381 L19.4477732,31.8483093 C19.1676701,31.6018969 18.8476082,31.3966186 18.4887629,31.232866 C18.1303093,31.0687216 17.6805773,30.9864536 17.1403505,30.9864536 C16.7031546,30.9864536 16.3031753,31.0718557 15.9408041,31.2426598 C15.578433,31.4130722 15.2658144,31.6453814 15.0029485,31.9388041 C14.7396907,32.2326186 14.5363711,32.5734433 14.3922062,32.9628454 C14.248433,33.3514639 14.177134,33.7608454 14.177134,34.1913814 L14.177134,34.2121443 C14.177134,34.6755876 14.2472577,35.1049485 14.3875052,35.5010103 C14.5273608,35.8966804 14.7306804,36.2386804 14.9974639,36.5246598 C15.2642474,36.8118144 15.5870515,37.0370722 15.9666598,37.2008247 C16.346268,37.3645773 16.7748454,37.4468454 17.2531753,37.4468454 C17.4788247,37.4468454 17.7013402,37.4245155 17.9199381,37.3802474 C18.1385361,37.3363711 18.3457732,37.2760412 18.5404742,37.2016082 C18.7347835,37.126 18.917732,37.0398144 19.0889278,36.9403093 C19.259732,36.8423711 19.4101649,36.7377732 19.5398351,36.6292577 L19.5398351,34.5756907 L17.1403505,34.5756907 L17.1403505,34.0938351 L20.0530309,34.0938351 L20.0530309,36.8545155 C19.7247423,37.1416701 19.3192784,37.392 18.8378144,37.6066804 C18.3559588,37.8209691 17.820433,37.9283093 17.2328041,37.9283093" id="Fill-3" fill="#8C9EFF"></path>
                    <path d="M23.5905567,30.6276082 L24.1233402,30.6276082 L24.1233402,37.805299 L23.5905567,37.805299 L23.5905567,30.6276082 Z" id="Fill-4" fill="#8C9EFF"></path>
                    <path d="M29.8554639,31.1098557 L27.3533402,31.1098557 L27.3533402,30.6276082 L32.8903711,30.6276082 L32.8903711,31.1098557 L30.3886392,31.1098557 L30.3886392,37.805299 L29.8554639,37.805299 L29.8554639,31.1098557" id="Fill-5" fill="#8C9EFF"></path>
                    <path d="M38.7764536,30.5766804 L39.2892577,30.5766804 L42.6316907,37.805299 L42.0475876,37.805299 L41.1348041,35.7956082 L36.8999588,35.7956082 L35.9867835,37.805299 L35.4336289,37.805299 L38.7764536,30.5766804 L38.7764536,30.5766804 Z M40.9095464,35.3141443 L39.0224742,31.1607835 L37.1256082,35.3141443 L40.9095464,35.3141443 L40.9095464,35.3141443 Z" id="Fill-6" fill="#8C9EFF"></path>
                    <path d="M45.6873608,30.6276082 L46.2205361,30.6276082 L46.2205361,37.3230515 L50.4350103,37.3230515 L50.4350103,37.805299 L45.6873608,37.805299 L45.6873608,30.6276082" id="Fill-7" fill="#8C9EFF"></path>
                    <path d="M41.0783918,13.3583711 L49.3189072,4.05503093 L43.2052165,4.05503093 L34.5396495,13.8037938 L34.5396495,12.7734845 C34.5396495,7.08484536 31.4032784,3.57630928 26.1400825,3.57630928 C22.8971546,3.57630928 20.2391134,5.17152577 18.4848454,7.82956701 C17.3150722,5.11863918 15.1886392,3.57630928 11.9461031,3.57630928 C9.07494845,3.57630928 6.78907216,5.06496907 5.30041237,7.88284536 L5.40696907,4.05503093 L0.0372164948,4.05503093 L0.0372164948,26.3829691 L5.40696907,26.3829691 L5.40696907,14.1555876 C5.40696907,10.4339381 7.26701031,8.52061856 10.4566598,8.52061856 C13.5409278,8.52061856 14.6037526,10.2212165 14.6037526,13.3054845 L14.6037526,26.3829691 L19.9727216,26.3829691 L19.9727216,14.1555876 C19.9727216,10.4339381 21.8335464,8.52061856 24.9699175,8.52061856 C28.0541856,8.52061856 29.1706804,10.2212165 29.1706804,13.3054845 L29.1706804,26.3829691 L34.5396495,26.3829691 L34.5396495,19.7909485 L37.3575258,16.8669072 L44.1089897,26.3829691 L50.4350103,26.3829691 L41.0783918,13.3583711" id="Fill-8" fill="#000000"></path>
                    <path d="M64.0488041,0.275010309 C56.7265567,0.275010309 52.5250103,6.26960825 48.2255258,11.2820825 C47.6378969,11.966866 47.045567,12.6473402 46.4555876,13.3305567 C49.9880206,18.2027835 53.1894227,24.959732 59.2431753,27.0822474 C60.7349691,27.6056289 62.4625979,27.934701 64.0488041,27.934701 C71.6871959,27.934701 77.8800206,21.7430515 77.8800206,14.1054433 C77.8800206,6.46705155 71.6871959,0.275010309 64.0488041,0.275010309 L64.0488041,0.275010309 Z M60.1442062,20.6700412 L61.1047835,20.6700412 L60.7471134,22.7525979 L59.4037938,22.7525979 C57.266,22.7525979 56.5251959,22.04 56.9369278,19.8199381 L58.4177526,11.2405567 L61.1584536,11.2405567 L59.6239588,19.8743918 C59.5405155,20.4228454 59.6784124,20.6700412 60.1442062,20.6700412 L60.1442062,20.6700412 Z M69.9141237,13.5154639 L66.9810722,13.5154639 L66.0216701,18.9153814 C65.774866,20.2308866 66.1583918,20.6426186 66.8976289,20.6426186 C67.5295258,20.6426186 67.9678969,20.3954227 68.2961856,20.1486186 L69.3656701,22.0129691 C68.7619794,22.5343918 67.9126598,22.9719794 66.4878557,22.9719794 C64.4319381,22.9719794 62.7877526,21.957732 63.3362062,18.8060825 L64.2670103,13.5154639 L62.5683711,13.5154639 L62.9522887,11.2405567 L64.6509278,11.2405567 L65.7204124,5.23812371 L68.4336907,5.23812371 L67.3649897,11.2405567 L70.3258557,11.2405567 L69.9141237,13.5154639 L69.9141237,13.5154639 Z" id="Fill-9" fill="#3D5AFE"></path>
                </g>
            </g>
        </g>
    </g>
</svg>